<?xml version="1.0" encoding="UTF-8"?>
<svg id="Layer_1" xmlns="http://www.w3.org/2000/svg" version="1.1" viewBox="0 0 1920 870.1">
  <!-- Generator: Adobe Illustrator 29.4.0, SVG Export Plug-In . SVG Version: 2.1.0 Build 152)  -->
  <defs>
    <style>
      .st0 {
        fill: none;
        stroke: #000;
        stroke-miterlimit: 10;
        stroke-width: 4px;
      }
    </style>
  </defs>
  <path class="st0" d="M-34.5,193.7S245.2-55.4,182.5,56.4-54.8,495.4,119.7,371.7s294.9-244.1,179.7-33.9-266.1,528.8-30.5,250.8-69.5,218.6,88.1,39S829.9,48,668.9,409s-284.7,571.2-5.1,244.1,278-352.7,208.5-220.4-335.6,522.1,39,50.9c374.6-471.2,327.1-325.4,223.7-122s-332.2,603.4-61,193.2c271.2-410.2,489.8-689.8,340.7-389.8s-323.7,630.5-157.6,416.9,498.3-820.3,261-232.2-198.3,506.8,27.1,206.8,210.2-166.4,111.9,71.2-54.2,333.9,110.2,39,118.6-20.3,78,83.1,103.4-108.5,103.4-108.5"/>
</svg>